# xmcd
#
# Track frame offsets:
#	150
#	13147
#	29404
#	43402
#	59112
#	73453
#	87905
#	103578
#	123647
#	140409
#	154761
#	168847
#	188609
#	202889
#	219207
#	231107
#	247716
#	261232
#	278284
#
# Disc length: 3926 seconds
#
# Revision: 1
# Processed by: cddbd v1.5.2PL0 Copyright (c) Steve Scherf et al.
# Submitted via: audiograbber 1.83.01
#
DISCID=0e0f5413
DTITLE=George Strait - Sound Choice 256 bit
DYEAR=1900
DGENRE=
TTITLE0=Ace In The Hole (SC) 256 bit
TTITLE1=Baby Blue (SC) 256 bit
TTITLE2=Blue Clear Sky (SC) 256 bit
TTITLE3=Carried Away (SC) 256 bit
TTITLE4=Easy Come Easy Go (SC) 256 bit
TTITLE5=Fool Hearted Memory (SC) 256 bit
TTITLE6=Gone As A Girl Can Get (SC) 256 bit
TTITLE7=I Can Still Make It To Cheyenne (SC) 256 bit
TTITLE8=I Just Want To Dance With You (SC) 256 bit
TTITLE9=Let's Fall To Pieces Together (SC) 256 bit
TTITLE10=Marina Del Ray (SC) 256 bit
TTITLE11=One Night At A Time (SC) 256 bit
TTITLE12=She'll Leave You With A Smaile (SC) 256 bit
TTITLE13=The Cowboy Rides Away (SC) 256 bit
TTITLE14=Unwound (SC) 256 bit
TTITLE15=What;s Going On In Your World (SC) 256 bit
TTITLE16=When Did You Stop Loving Me (SC) 256 bit
TTITLE17=Write This Down (SC) 256 bit
TTITLE18=You're Something Special To Me (SC) 256 bit
EXTD=
EXTT0=
EXTT1=
EXTT2=
EXTT3=
EXTT4=
EXTT5=
EXTT6=
EXTT7=
EXTT8=
EXTT9=
EXTT10=
EXTT11=
EXTT12=
EXTT13=
EXTT14=
EXTT15=
EXTT16=
EXTT17=
EXTT18=
PLAYORDER=
